<?xml version="1.0" encoding="UTF-8" standalone="no"?>
<svg width="65px" height="65px" viewBox="0 0 65 65" version="1.1" xmlns="http://www.w3.org/2000/svg" xmlns:xlink="http://www.w3.org/1999/xlink">
    <defs></defs>
      <g id="logo">
          <rect id="rectangle" fill="#292929" x="0" y="0" width="65" height="65"></rect>
          <path d="M13.5820312,21.6132812 L11.2382812,21.0273438 L11.2382812,18.2734375 L23.7773438,18.2734375 L23.7773438,21.0273438 L20.4960938,21.6132812 L25.3203125,39.328125 L26.0429688,43.1953125 L26.7265625,39.328125 L30.8085938,25.03125 L29.6757812,21.59375 L27.1757812,21.0273438 L27.1757812,18.2734375 L40.203125,18.2734375 L40.203125,21.0273438 L36.4921875,21.59375 L41.3359375,39.328125 L42.1757812,43.4882812 L42.859375,39.328125 L47.3125,21.59375 L43.8359375,21.0273438 L43.8359375,18.2734375 L53.6601562,18.2734375 L53.6601562,21.0273438 L51.140625,21.6132812 L43.5820312,48.1953125 L37.6640625,48.1953125 L32.4882812,30.421875 L27.546875,48.1953125 L21.7460938,48.1953125 L13.5820312,21.6132812 Z" id="W" fill="#F7F7F7"></path>
      </g>
</svg>
